<svg id="Capa_1" enable-background="new 0 0 512 512" height="512" viewBox="0 0 512 512" width="512" xmlns="http://www.w3.org/2000/svg"><g><path d="m406 452h-45v-32h20.05c8.284 0 15-6.716 15-15s-6.716-15-15-15h-20.05v-30h40.05c8.284 0 15-6.716 15-15s-6.716-15-15-15h-40.05v-30h20.05c8.284 0 15-6.716 15-15s-6.716-15-15-15h-20.05v-30h40.05c8.284 0 15-6.716 15-15s-6.716-15-15-15h-40.05v-30h20.05c8.284 0 15-6.716 15-15s-6.716-15-15-15h-20.05v-30h40.05c8.284 0 15-6.716 15-15s-6.716-15-15-15h-40.05v-30h20.05c8.284 0 15-6.716 15-15s-6.716-15-15-15h-20.05v-15c0-8.284-6.716-15-15-15s-15 6.716-15 15v437h-54.158l6.375-102h-114.334l6.375 102h-69.258c-8.284 0-15 6.716-15 15v30c0 8.284 6.716 15 15 15s15-6.716 15-15v-15h270v15c0 8.284 6.716 15 15 15s15-6.716 15-15v-30c0-8.284-6.716-15-15-15z"/><circle cx="226.1" cy="95" r="45"/><path d="m166.1 320h119.95c8.284 0 15-6.716 15-15v-100.025c0-21.694-9.271-41.256-24.048-54.958-28.794 26.66-73.052 26.644-101.829-.024-14.792 13.704-24.073 33.276-24.073 54.982v100.025c0 8.284 6.715 15 15 15z"/></g></svg>